<svg width="28" height="28" viewBox="0 0 28 28" fill="none" xmlns="http://www.w3.org/2000/svg">
<path d="M17.4999 23.1933C17.5466 23.5433 17.4299 23.9167 17.1616 24.1617C17.0536 24.2698 16.9254 24.3556 16.7843 24.4142C16.6432 24.4727 16.4919 24.5028 16.3391 24.5028C16.1863 24.5028 16.035 24.4727 15.8938 24.4142C15.7527 24.3556 15.6245 24.2698 15.5166 24.1617L10.8382 19.4833C10.7111 19.3589 10.6144 19.2068 10.5557 19.0388C10.497 18.8708 10.4779 18.6916 10.4999 18.515V12.5417L4.91158 5.39C4.72212 5.14679 4.63663 4.83847 4.67379 4.53242C4.71096 4.22637 4.86775 3.94747 5.10991 3.75667C5.33158 3.59333 5.57658 3.5 5.83324 3.5H22.1666C22.4232 3.5 22.6682 3.59333 22.8899 3.75667C23.1321 3.94747 23.2889 4.22637 23.326 4.53242C23.3632 4.83847 23.2777 5.14679 23.0882 5.39L17.4999 12.5417V23.1933ZM8.21324 5.83333L12.8332 11.7367V18.1767L15.1666 20.51V11.725L19.7866 5.83333H8.21324Z" fill="#5E00A6"/>
</svg>
