<svg width="72" height="20" viewBox="0 0 72 20" fill="none" xmlns="http://www.w3.org/2000/svg">
<path d="M0.779233 19V1.54545H4.46957V15.9574H11.9525V19H0.779233ZM22.3151 13.4261V5.90909H25.9458V19H22.46V16.6222H22.3236C22.0282 17.3892 21.5367 18.0057 20.8492 18.4716C20.1674 18.9375 19.335 19.1705 18.3521 19.1705C17.4771 19.1705 16.7072 18.9716 16.0424 18.5739C15.3776 18.1761 14.8577 17.6108 14.4827 16.8778C14.1134 16.1449 13.9259 15.267 13.9202 14.2443V5.90909H17.5509V13.5966C17.5566 14.3693 17.764 14.9801 18.1731 15.429C18.5822 15.8778 19.1305 16.1023 19.818 16.1023C20.2555 16.1023 20.6646 16.0028 21.0452 15.804C21.4259 15.5994 21.7327 15.2983 21.9657 14.9006C22.2043 14.5028 22.3208 14.0114 22.3151 13.4261ZM35.405 5.90909V8.63636H27.5215V5.90909H35.405ZM29.3112 2.77273H32.9419V14.9773C32.9419 15.3125 32.9931 15.5739 33.0953 15.7614C33.1976 15.9432 33.3397 16.071 33.5215 16.1449C33.709 16.2187 33.9249 16.2557 34.1692 16.2557C34.3397 16.2557 34.5101 16.2415 34.6806 16.2131C34.851 16.179 34.9817 16.1534 35.0726 16.1364L35.6436 18.8381C35.4618 18.8949 35.2061 18.9602 34.8766 19.0341C34.547 19.1136 34.1465 19.1619 33.6749 19.179C32.7999 19.2131 32.0328 19.0966 31.3737 18.8295C30.7203 18.5625 30.2118 18.1477 29.8482 17.5852C29.4845 17.0227 29.3056 16.3125 29.3112 15.4545V2.77273ZM44.4018 5.90909V8.63636H36.3223V5.90909H44.4018ZM38.1717 19V4.96307C38.1717 4.0142 38.3564 3.22727 38.7257 2.60227C39.1007 1.97727 39.6121 1.50852 40.2598 1.19602C40.9075 0.883522 41.6433 0.727272 42.4672 0.727272C43.024 0.727272 43.5325 0.769886 43.9927 0.855114C44.4586 0.940341 44.8052 1.01705 45.0325 1.08523L44.3848 3.8125C44.2427 3.76705 44.0666 3.72443 43.8564 3.68466C43.6518 3.64489 43.4416 3.625 43.2257 3.625C42.6916 3.625 42.3194 3.75 42.1092 4C41.899 4.24432 41.7939 4.58807 41.7939 5.03125V19H38.1717ZM49.4761 19.2472C48.6408 19.2472 47.8965 19.1023 47.2431 18.8125C46.5897 18.517 46.0727 18.0824 45.692 17.5085C45.317 16.929 45.1295 16.2074 45.1295 15.3438C45.1295 14.6165 45.263 14.0057 45.53 13.5114C45.7971 13.017 46.1607 12.6193 46.621 12.3182C47.0812 12.017 47.6039 11.7898 48.1891 11.6364C48.78 11.483 49.3994 11.375 50.0471 11.3125C50.8085 11.233 51.4221 11.1591 51.888 11.0909C52.3539 11.017 52.692 10.9091 52.9022 10.767C53.1124 10.625 53.2175 10.4148 53.2175 10.1364V10.0852C53.2175 9.54545 53.0471 9.12784 52.7062 8.83239C52.371 8.53693 51.8937 8.3892 51.2744 8.3892C50.621 8.3892 50.1011 8.53409 49.7147 8.82386C49.3283 9.10795 49.0727 9.46591 48.9477 9.89773L45.5897 9.625C45.7602 8.82955 46.0954 8.14205 46.5954 7.5625C47.0954 6.97727 47.7403 6.52841 48.53 6.21591C49.3255 5.89773 50.246 5.73864 51.2914 5.73864C52.0187 5.73864 52.7147 5.82386 53.3795 5.99432C54.0499 6.16477 54.6437 6.42898 55.1607 6.78693C55.6835 7.14489 56.0954 7.60511 56.3965 8.16761C56.6977 8.72443 56.8482 9.39205 56.8482 10.1705V19H53.405V17.1847H53.3028C53.0925 17.5938 52.8113 17.9545 52.459 18.267C52.1068 18.5739 51.6835 18.8153 51.1891 18.9915C50.6948 19.1619 50.1238 19.2472 49.4761 19.2472ZM50.5158 16.7415C51.0499 16.7415 51.5215 16.6364 51.9306 16.4261C52.3397 16.2102 52.6607 15.9205 52.8937 15.5568C53.1266 15.1932 53.2431 14.7812 53.2431 14.321V12.9318C53.1295 13.0057 52.9732 13.0739 52.7744 13.1364C52.5812 13.1932 52.3624 13.2472 52.1181 13.2983C51.8738 13.3437 51.6295 13.3864 51.3852 13.4261C51.1408 13.4602 50.9193 13.4915 50.7204 13.5199C50.2943 13.5824 49.9221 13.6818 49.6039 13.8182C49.2857 13.9545 49.0386 14.1392 48.8624 14.3722C48.6863 14.5994 48.5982 14.8835 48.5982 15.2244C48.5982 15.7188 48.7772 16.0966 49.1352 16.358C49.4988 16.6136 49.959 16.7415 50.5158 16.7415ZM62.8877 11.4318V19H59.257V5.90909H62.7172V8.21875H62.8706C63.1604 7.45739 63.6462 6.85511 64.328 6.41193C65.0098 5.96307 65.8365 5.73864 66.8081 5.73864C67.7172 5.73864 68.5098 5.9375 69.186 6.33523C69.8621 6.73295 70.3877 7.30114 70.7627 8.03977C71.1377 8.77273 71.3252 9.64773 71.3252 10.6648V19H67.6945V11.3125C67.7002 10.5114 67.4956 9.88636 67.0809 9.4375C66.6661 8.98295 66.0951 8.75568 65.3678 8.75568C64.8791 8.75568 64.4473 8.8608 64.0723 9.07102C63.703 9.28125 63.4132 9.58807 63.203 9.99148C62.9985 10.3892 62.8934 10.8693 62.8877 11.4318Z" fill="white"/>
</svg>
