<svg width="266" height="24" viewBox="0 0 266 24" fill="none" xmlns="http://www.w3.org/2000/svg">
<g clip-path="url(#clip0_101_2053)">
<path d="M23.2 2.3999L0.800049 10.3999L7.20005 13.5999L16.8 7.1999L10.4 15.1999L20 21.5999L23.2 2.3999Z" stroke="#8C8C8C" stroke-width="2" stroke-linejoin="round"/>
</g>
<path d="M53.9148 22.8352C52.4659 22.8352 51.1851 22.6364 50.0724 22.2386C48.9598 21.8456 48.0246 21.2656 47.267 20.4986C46.5095 19.7315 45.9366 18.7917 45.5483 17.679C45.16 16.5663 44.9659 15.2926 44.9659 13.858C44.9659 12.4706 45.1624 11.2301 45.5554 10.1364C45.9531 9.04261 46.5284 8.11458 47.2812 7.35227C48.0388 6.58523 48.9574 6.00047 50.0369 5.59801C51.1212 5.19555 52.3475 4.99432 53.7159 4.99432C55.0464 4.99432 56.2112 5.21212 57.2102 5.64773C58.214 6.0786 59.0521 6.66335 59.7244 7.40199C60.4015 8.13589 60.9081 8.96212 61.2443 9.88068C61.5852 10.7992 61.7557 11.7462 61.7557 12.7216C61.7557 13.4081 61.7225 14.1042 61.6562 14.8097C61.59 15.5152 61.4503 16.1638 61.2372 16.7557C61.0241 17.3428 60.6951 17.8163 60.25 18.1761C59.8097 18.536 59.2131 18.7159 58.4602 18.7159C58.1288 18.7159 57.7642 18.6638 57.3665 18.5597C56.9688 18.4555 56.616 18.2827 56.3082 18.0412C56.0005 17.7997 55.8182 17.4754 55.7614 17.0682H55.6761C55.5625 17.3428 55.3873 17.6032 55.1506 17.8494C54.9186 18.0956 54.6132 18.2921 54.2344 18.4389C53.8603 18.5857 53.4034 18.6496 52.8636 18.6307C52.2481 18.607 51.706 18.4697 51.2372 18.2188C50.7685 17.9631 50.3755 17.6174 50.0582 17.1818C49.7457 16.7415 49.509 16.2325 49.348 15.6548C49.1918 15.0724 49.1136 14.4451 49.1136 13.7727C49.1136 13.1335 49.2083 12.5488 49.3977 12.0185C49.5871 11.4882 49.8499 11.0241 50.1861 10.6264C50.527 10.2287 50.9247 9.91146 51.3793 9.67472C51.8385 9.43324 52.3333 9.28409 52.8636 9.22727C53.3371 9.17992 53.768 9.20123 54.1562 9.29119C54.5445 9.37642 54.8641 9.50663 55.1151 9.68182C55.366 9.85227 55.5246 10.0417 55.5909 10.25H55.6761V9.45455H57.1818V15.875C57.1818 16.2727 57.2931 16.6231 57.5156 16.9261C57.7382 17.2292 58.0625 17.3807 58.4886 17.3807C58.9716 17.3807 59.3409 17.215 59.5966 16.8835C59.857 16.5521 60.0346 16.0407 60.1293 15.3494C60.2287 14.6581 60.2784 13.7727 60.2784 12.6932C60.2784 12.0587 60.1908 11.4337 60.0156 10.8182C59.8452 10.1979 59.5848 9.6179 59.2344 9.07812C58.8887 8.53835 58.4508 8.0625 57.9205 7.65057C57.3902 7.23864 56.7675 6.91667 56.0526 6.68466C55.3423 6.44792 54.535 6.32955 53.6307 6.32955C52.518 6.32955 51.5213 6.50237 50.6406 6.84801C49.7647 7.18892 49.0189 7.68845 48.4034 8.34659C47.7926 9 47.3262 9.79545 47.0043 10.733C46.687 11.6657 46.5284 12.7263 46.5284 13.9148C46.5284 15.1222 46.687 16.1946 47.0043 17.1321C47.3262 18.0696 47.7997 18.8603 48.4247 19.5043C49.0545 20.1482 49.8333 20.6359 50.7614 20.9673C51.6894 21.3035 52.7595 21.4716 53.9716 21.4716C54.4924 21.4716 55.0062 21.4219 55.5128 21.3224C56.0194 21.223 56.4669 21.1141 56.8551 20.9957C57.2434 20.8774 57.5227 20.7898 57.6932 20.733L58.0909 22.0398C57.7973 22.1629 57.4138 22.286 56.9403 22.4091C56.4716 22.5322 55.9697 22.634 55.4347 22.7145C54.9044 22.795 54.3977 22.8352 53.9148 22.8352ZM53.0909 17.1818C53.7254 17.1818 54.2391 17.054 54.6321 16.7983C55.0251 16.5426 55.3116 16.1567 55.4915 15.6406C55.6714 15.1245 55.7614 14.4735 55.7614 13.6875C55.7614 12.892 55.6619 12.2718 55.4631 11.8267C55.2642 11.3816 54.9706 11.0691 54.5824 10.8892C54.1941 10.7093 53.7159 10.6193 53.1477 10.6193C52.608 10.6193 52.1463 10.7614 51.7628 11.0455C51.384 11.3248 51.0928 11.6989 50.8892 12.1676C50.6903 12.6316 50.5909 13.1383 50.5909 13.6875C50.5909 14.2936 50.6714 14.8641 50.8324 15.3991C50.9934 15.9295 51.2562 16.3603 51.6207 16.6918C51.9853 17.0185 52.4754 17.1818 53.0909 17.1818ZM69.0089 8.09091V9.51136H63.3555V8.09091H69.0089ZM65.0032 5.47727H66.6793V15.875C66.6793 16.3485 66.748 16.7036 66.8853 16.9403C67.0273 17.1723 67.2073 17.3286 67.4251 17.4091C67.6476 17.4848 67.882 17.5227 68.1282 17.5227C68.3129 17.5227 68.4644 17.5133 68.5827 17.4943C68.7011 17.4706 68.7958 17.4517 68.8668 17.4375L69.2077 18.9432C69.0941 18.9858 68.9355 19.0284 68.7319 19.071C68.5283 19.1184 68.2702 19.142 67.9577 19.142C67.4843 19.142 67.0202 19.0402 66.5657 18.8366C66.1159 18.633 65.7418 18.3229 65.4435 17.9062C65.15 17.4896 65.0032 16.964 65.0032 16.3295V5.47727ZM75.8448 19.2273C74.86 19.2273 73.9959 18.9929 73.2525 18.5241C72.5138 18.0554 71.9362 17.3996 71.5195 16.5568C71.1076 15.714 70.9016 14.7292 70.9016 13.6023C70.9016 12.4659 71.1076 11.474 71.5195 10.6264C71.9362 9.77888 72.5138 9.12074 73.2525 8.65199C73.9959 8.18324 74.86 7.94886 75.8448 7.94886C76.8297 7.94886 77.6914 8.18324 78.43 8.65199C79.1734 9.12074 79.7511 9.77888 80.163 10.6264C80.5797 11.474 80.788 12.4659 80.788 13.6023C80.788 14.7292 80.5797 15.714 80.163 16.5568C79.7511 17.3996 79.1734 18.0554 78.43 18.5241C77.6914 18.9929 76.8297 19.2273 75.8448 19.2273ZM75.8448 17.7216C76.5929 17.7216 77.2085 17.5298 77.6914 17.1463C78.1744 16.7628 78.5318 16.2585 78.7638 15.6335C78.9959 15.0085 79.1119 14.3314 79.1119 13.6023C79.1119 12.8731 78.9959 12.1937 78.7638 11.5639C78.5318 10.9342 78.1744 10.4252 77.6914 10.0369C77.2085 9.64867 76.5929 9.45455 75.8448 9.45455C75.0967 9.45455 74.4812 9.64867 73.9982 10.0369C73.5153 10.4252 73.1578 10.9342 72.9258 11.5639C72.6938 12.1937 72.5778 12.8731 72.5778 13.6023C72.5778 14.3314 72.6938 15.0085 72.9258 15.6335C73.1578 16.2585 73.5153 16.7628 73.9982 17.1463C74.4812 17.5298 75.0967 17.7216 75.8448 17.7216ZM91.0739 10.5341L89.5682 10.9602C89.4735 10.7093 89.3338 10.4654 89.1491 10.2287C88.9692 9.98722 88.723 9.78835 88.4105 9.6321C88.098 9.47585 87.6979 9.39773 87.2102 9.39773C86.5426 9.39773 85.9863 9.55161 85.5412 9.85938C85.1009 10.1624 84.8807 10.5483 84.8807 11.017C84.8807 11.4337 85.0322 11.7628 85.3352 12.0043C85.6383 12.2457 86.1117 12.447 86.7557 12.608L88.375 13.0057C89.3504 13.2424 90.0772 13.6046 90.5554 14.0923C91.0336 14.5753 91.2727 15.1979 91.2727 15.9602C91.2727 16.5852 91.0928 17.1439 90.733 17.6364C90.3778 18.1288 89.8807 18.517 89.2415 18.8011C88.6023 19.0852 87.8589 19.2273 87.0114 19.2273C85.8987 19.2273 84.9777 18.9858 84.2486 18.5028C83.5194 18.0199 83.0578 17.3144 82.8636 16.3864L84.4545 15.9886C84.6061 16.5758 84.8925 17.0161 85.3139 17.3097C85.7401 17.6032 86.2964 17.75 86.983 17.75C87.7642 17.75 88.3845 17.5843 88.8438 17.2528C89.3078 16.9167 89.5398 16.5142 89.5398 16.0455C89.5398 15.6667 89.4072 15.3494 89.142 15.0938C88.8769 14.8333 88.4697 14.6392 87.9205 14.5114L86.1023 14.0852C85.1032 13.8485 84.3693 13.4815 83.9006 12.9844C83.4366 12.4825 83.2045 11.8551 83.2045 11.1023C83.2045 10.4867 83.3774 9.94223 83.723 9.46875C84.0734 8.99527 84.5492 8.62358 85.1506 8.35369C85.7566 8.08381 86.4432 7.94886 87.2102 7.94886C88.2898 7.94886 89.1373 8.18561 89.7528 8.65909C90.3731 9.13258 90.8134 9.75758 91.0739 10.5341ZM95.4719 12.4375V19H93.7958V4.45455H95.4719V9.79545H95.614C95.8697 9.23201 96.2532 8.78456 96.7646 8.45312C97.2807 8.11695 97.9672 7.94886 98.8242 7.94886C99.5676 7.94886 100.219 8.09801 100.777 8.39631C101.336 8.68987 101.769 9.14205 102.077 9.75284C102.39 10.3589 102.546 11.1307 102.546 12.0682V19H100.87V12.1818C100.87 11.3153 100.645 10.6454 100.195 10.1719C99.7499 9.69366 99.132 9.45455 98.3413 9.45455C97.792 9.45455 97.2996 9.57055 96.864 9.80256C96.4331 10.0346 96.0922 10.3731 95.8413 10.8182C95.5951 11.2633 95.4719 11.803 95.4719 12.4375ZM107.175 15.0227L107.146 12.9489H107.487L112.26 8.09091H114.334L109.249 13.233H109.107L107.175 15.0227ZM105.612 19V4.45455H107.288V19H105.612ZM112.544 19L108.283 13.6023L109.476 12.4375L114.675 19H112.544ZM120.616 19.2273C119.565 19.2273 118.658 18.9953 117.896 18.5312C117.138 18.0625 116.553 17.4091 116.141 16.571C115.734 15.7282 115.531 14.7481 115.531 13.6307C115.531 12.5133 115.734 11.5284 116.141 10.6761C116.553 9.81913 117.126 9.15152 117.86 8.6733C118.599 8.19034 119.46 7.94886 120.445 7.94886C121.013 7.94886 121.575 8.04356 122.129 8.23295C122.683 8.42235 123.187 8.73011 123.641 9.15625C124.096 9.57765 124.458 10.1364 124.728 10.8324C124.998 11.5284 125.133 12.3854 125.133 13.4034V14.1136H116.724V12.6648H123.428C123.428 12.0492 123.305 11.5 123.059 11.017C122.817 10.5341 122.472 10.1529 122.022 9.87358C121.577 9.59422 121.051 9.45455 120.445 9.45455C119.778 9.45455 119.2 9.62026 118.712 9.9517C118.229 10.2784 117.858 10.7045 117.597 11.2301C117.337 11.7557 117.207 12.3191 117.207 12.9205V13.8864C117.207 14.7102 117.349 15.4086 117.633 15.9815C117.922 16.5497 118.322 16.983 118.833 17.2812C119.344 17.5748 119.939 17.7216 120.616 17.7216C121.056 17.7216 121.454 17.66 121.809 17.5369C122.169 17.4091 122.479 17.2197 122.739 16.9688C123 16.7131 123.201 16.3958 123.343 16.017L124.962 16.4716C124.792 17.0208 124.505 17.5038 124.103 17.9205C123.701 18.3324 123.203 18.6544 122.612 18.8864C122.02 19.1136 121.354 19.2273 120.616 19.2273ZM129.359 12.4375V19H127.683V8.09091H129.302V9.79545H129.444C129.7 9.24148 130.088 8.7964 130.609 8.46023C131.129 8.11932 131.802 7.94886 132.626 7.94886C133.364 7.94886 134.011 8.10038 134.565 8.40341C135.119 8.7017 135.549 9.15625 135.857 9.76705C136.165 10.3731 136.319 11.1402 136.319 12.0682V19H134.643V12.1818C134.643 11.3248 134.42 10.6572 133.975 10.179C133.53 9.69602 132.919 9.45455 132.143 9.45455C131.608 9.45455 131.129 9.57055 130.708 9.80256C130.291 10.0346 129.962 10.3731 129.721 10.8182C129.479 11.2633 129.359 11.803 129.359 12.4375ZM144.126 8.09091V9.51136H138.473V8.09091H144.126ZM140.12 5.47727H141.797V15.875C141.797 16.3485 141.865 16.7036 142.002 16.9403C142.145 17.1723 142.324 17.3286 142.542 17.4091C142.765 17.4848 142.999 17.5227 143.245 17.5227C143.43 17.5227 143.582 17.5133 143.7 17.4943C143.818 17.4706 143.913 17.4517 143.984 17.4375L144.325 18.9432C144.211 18.9858 144.053 19.0284 143.849 19.071C143.645 19.1184 143.387 19.142 143.075 19.142C142.601 19.142 142.137 19.0402 141.683 18.8366C141.233 18.633 140.859 18.3229 140.561 17.9062C140.267 17.4896 140.12 16.964 140.12 16.3295V5.47727ZM154.176 19V20.5625H145.085V19H154.176ZM157.366 4.45455V19H155.69V4.45455H157.366ZM167.311 14.5398V8.09091H168.988V19H167.311V17.1534H167.198C166.942 17.7074 166.544 18.1785 166.005 18.5668C165.465 18.9503 164.783 19.142 163.959 19.142C163.277 19.142 162.671 18.9929 162.141 18.6946C161.611 18.3916 161.194 17.937 160.891 17.331C160.588 16.7202 160.436 15.9508 160.436 15.0227V8.09091H162.113V14.9091C162.113 15.7045 162.335 16.339 162.78 16.8125C163.23 17.286 163.803 17.5227 164.499 17.5227C164.916 17.5227 165.339 17.4162 165.77 17.2031C166.206 16.9901 166.57 16.6634 166.864 16.223C167.162 15.7827 167.311 15.2216 167.311 14.5398ZM176.802 8.09091V9.51136H171.148V8.09091H176.802ZM172.796 5.47727H174.472V15.875C174.472 16.3485 174.541 16.7036 174.678 16.9403C174.82 17.1723 175 17.3286 175.218 17.4091C175.441 17.4848 175.675 17.5227 175.921 17.5227C176.106 17.5227 176.257 17.5133 176.376 17.4943C176.494 17.4706 176.589 17.4517 176.66 17.4375L177.001 18.9432C176.887 18.9858 176.728 19.0284 176.525 19.071C176.321 19.1184 176.063 19.142 175.751 19.142C175.277 19.142 174.813 19.0402 174.359 18.8366C173.909 18.633 173.535 18.3229 173.237 17.9062C172.943 17.4896 172.796 16.964 172.796 16.3295V5.47727ZM184.181 8.09091V9.51136H178.3V8.09091H184.181ZM180.062 19V6.58523C180.062 5.96023 180.209 5.43939 180.502 5.02273C180.796 4.60606 181.177 4.29356 181.646 4.08523C182.114 3.87689 182.609 3.77273 183.13 3.77273C183.542 3.77273 183.878 3.80587 184.138 3.87216C184.399 3.93845 184.593 4 184.721 4.05682L184.238 5.50568C184.153 5.47727 184.034 5.44176 183.883 5.39915C183.736 5.35653 183.542 5.33523 183.3 5.33523C182.746 5.33523 182.346 5.4749 182.1 5.75426C181.859 6.03362 181.738 6.44318 181.738 6.98295V19H180.062ZM189.428 19.2557C188.737 19.2557 188.109 19.1255 187.546 18.8651C186.982 18.5999 186.535 18.2188 186.203 17.7216C185.872 17.2197 185.706 16.6136 185.706 15.9034C185.706 15.2784 185.829 14.7718 186.076 14.3835C186.322 13.9905 186.651 13.6828 187.063 13.4602C187.475 13.2377 187.929 13.072 188.426 12.9631C188.928 12.8494 189.433 12.7595 189.939 12.6932C190.602 12.608 191.14 12.544 191.551 12.5014C191.968 12.4541 192.271 12.3759 192.461 12.267C192.655 12.1581 192.752 11.9687 192.752 11.6989V11.642C192.752 10.9413 192.56 10.3968 192.176 10.0085C191.798 9.62027 191.222 9.42614 190.451 9.42614C189.65 9.42614 189.023 9.60133 188.569 9.9517C188.114 10.3021 187.794 10.6761 187.61 11.0739L186.019 10.5057C186.303 9.8428 186.682 9.3267 187.155 8.95739C187.633 8.58333 188.154 8.32292 188.718 8.17614C189.286 8.02462 189.845 7.94886 190.394 7.94886C190.744 7.94886 191.147 7.99148 191.601 8.0767C192.06 8.1572 192.503 8.32528 192.929 8.58097C193.36 8.83665 193.718 9.22254 194.002 9.73864C194.286 10.2547 194.428 10.946 194.428 11.8125V19H192.752V17.5227H192.667C192.553 17.7595 192.364 18.0128 192.098 18.2827C191.833 18.5526 191.48 18.7822 191.04 18.9716C190.6 19.161 190.062 19.2557 189.428 19.2557ZM189.684 17.75C190.346 17.75 190.905 17.6198 191.36 17.3594C191.819 17.099 192.165 16.7628 192.397 16.3509C192.633 15.9389 192.752 15.5057 192.752 15.0511V13.517C192.681 13.6023 192.525 13.6804 192.283 13.7514C192.046 13.8177 191.772 13.8769 191.459 13.929C191.151 13.9763 190.851 14.0189 190.557 14.0568C190.268 14.09 190.034 14.1184 189.854 14.142C189.418 14.1989 189.011 14.2912 188.632 14.419C188.258 14.5421 187.955 14.7292 187.723 14.9801C187.496 15.2263 187.382 15.5625 187.382 15.9886C187.382 16.571 187.598 17.0114 188.029 17.3097C188.464 17.6032 189.016 17.75 189.684 17.75ZM199.163 12.4375V19H197.487V8.09091H199.107V9.79545H199.249C199.504 9.24148 199.893 8.7964 200.413 8.46023C200.934 8.11932 201.607 7.94886 202.43 7.94886C203.169 7.94886 203.815 8.10038 204.369 8.40341C204.923 8.7017 205.354 9.15625 205.662 9.76705C205.97 10.3731 206.124 11.1402 206.124 12.0682V19H204.447V12.1818C204.447 11.3248 204.225 10.6572 203.78 10.179C203.335 9.69602 202.724 9.45455 201.947 9.45455C201.412 9.45455 200.934 9.57055 200.513 9.80256C200.096 10.0346 199.767 10.3731 199.526 10.8182C199.284 11.2633 199.163 11.803 199.163 12.4375ZM210.408 19.1136C210.058 19.1136 209.757 18.9882 209.506 18.7372C209.255 18.4863 209.13 18.1856 209.13 17.8352C209.13 17.4848 209.255 17.1842 209.506 16.9332C209.757 16.6823 210.058 16.5568 210.408 16.5568C210.758 16.5568 211.059 16.6823 211.31 16.9332C211.561 17.1842 211.686 17.4848 211.686 17.8352C211.686 18.0672 211.627 18.2803 211.509 18.4744C211.395 18.6686 211.241 18.8248 211.047 18.9432C210.858 19.0568 210.645 19.1136 210.408 19.1136ZM219.098 23.3182C218.288 23.3182 217.592 23.214 217.01 23.0057C216.427 22.8021 215.942 22.5322 215.554 22.196C215.17 21.8646 214.865 21.5095 214.637 21.1307L215.973 20.1932C216.124 20.392 216.316 20.6193 216.548 20.875C216.78 21.1354 217.097 21.3603 217.5 21.5497C217.907 21.7438 218.44 21.8409 219.098 21.8409C219.978 21.8409 220.705 21.6278 221.278 21.2017C221.851 20.7756 222.137 20.108 222.137 19.1989V16.983H221.995C221.872 17.1818 221.697 17.428 221.47 17.7216C221.247 18.0104 220.925 18.2685 220.504 18.4957C220.087 18.7183 219.524 18.8295 218.814 18.8295C217.933 18.8295 217.142 18.6212 216.441 18.2045C215.745 17.7879 215.194 17.1818 214.787 16.3864C214.384 15.5909 214.183 14.625 214.183 13.4886C214.183 12.3712 214.379 11.3982 214.772 10.5696C215.165 9.73627 215.712 9.09233 216.413 8.63778C217.114 8.1785 217.923 7.94886 218.842 7.94886C219.552 7.94886 220.116 8.06723 220.532 8.30398C220.954 8.53598 221.276 8.80114 221.498 9.09943C221.725 9.39299 221.901 9.63447 222.024 9.82386H222.194V8.09091H223.814V19.3125C223.814 20.25 223.6 21.0123 223.174 21.5994C222.753 22.1913 222.185 22.6245 221.47 22.8991C220.76 23.1785 219.969 23.3182 219.098 23.3182ZM219.041 17.3239C219.713 17.3239 220.281 17.17 220.745 16.8622C221.209 16.5545 221.562 16.1117 221.804 15.5341C222.045 14.9564 222.166 14.2652 222.166 13.4602C222.166 12.6742 222.047 11.9806 221.811 11.3793C221.574 10.7779 221.224 10.3068 220.76 9.96591C220.296 9.625 219.723 9.45455 219.041 9.45455C218.331 9.45455 217.739 9.63447 217.265 9.99432C216.797 10.3542 216.444 10.8371 216.207 11.4432C215.975 12.0492 215.859 12.7216 215.859 13.4602C215.859 14.2178 215.977 14.8878 216.214 15.4702C216.456 16.0478 216.811 16.5024 217.279 16.8338C217.753 17.1605 218.34 17.3239 219.041 17.3239ZM233.757 14.5398V8.09091H235.433V19H233.757V17.1534H233.643C233.387 17.7074 232.99 18.1785 232.45 18.5668C231.91 18.9503 231.228 19.142 230.404 19.142C229.723 19.142 229.117 18.9929 228.586 18.6946C228.056 18.3916 227.639 17.937 227.336 17.331C227.033 16.7202 226.882 15.9508 226.882 15.0227V8.09091H228.558V14.9091C228.558 15.7045 228.78 16.339 229.225 16.8125C229.675 17.286 230.248 17.5227 230.944 17.5227C231.361 17.5227 231.785 17.4162 232.216 17.2031C232.651 16.9901 233.016 16.6634 233.309 16.223C233.608 15.7827 233.757 15.2216 233.757 14.5398ZM240.179 4.45455V19H238.503V4.45455H240.179ZM244.925 4.45455V19H243.249V4.45455H244.925ZM251.205 19.2557C250.514 19.2557 249.887 19.1255 249.323 18.8651C248.76 18.5999 248.312 18.2188 247.981 17.7216C247.649 17.2197 247.484 16.6136 247.484 15.9034C247.484 15.2784 247.607 14.7718 247.853 14.3835C248.099 13.9905 248.428 13.6828 248.84 13.4602C249.252 13.2377 249.707 13.072 250.204 12.9631C250.706 12.8494 251.21 12.7595 251.717 12.6932C252.379 12.608 252.917 12.544 253.329 12.5014C253.746 12.4541 254.049 12.3759 254.238 12.267C254.432 12.1581 254.529 11.9687 254.529 11.6989V11.642C254.529 10.9413 254.337 10.3968 253.954 10.0085C253.575 9.62027 253 9.42614 252.228 9.42614C251.428 9.42614 250.8 9.60133 250.346 9.9517C249.891 10.3021 249.572 10.6761 249.387 11.0739L247.796 10.5057C248.08 9.8428 248.459 9.3267 248.933 8.95739C249.411 8.58333 249.932 8.32292 250.495 8.17614C251.063 8.02462 251.622 7.94886 252.171 7.94886C252.522 7.94886 252.924 7.99148 253.379 8.0767C253.838 8.1572 254.281 8.32528 254.707 8.58097C255.138 8.83665 255.495 9.22254 255.779 9.73864C256.063 10.2547 256.205 10.946 256.205 11.8125V19H254.529V17.5227H254.444C254.33 17.7595 254.141 18.0128 253.876 18.2827C253.611 18.5526 253.258 18.7822 252.817 18.9716C252.377 19.161 251.84 19.2557 251.205 19.2557ZM251.461 17.75C252.124 17.75 252.683 17.6198 253.137 17.3594C253.596 17.099 253.942 16.7628 254.174 16.3509C254.411 15.9389 254.529 15.5057 254.529 15.0511V13.517C254.458 13.6023 254.302 13.6804 254.06 13.7514C253.824 13.8177 253.549 13.8769 253.237 13.929C252.929 13.9763 252.628 14.0189 252.335 14.0568C252.046 14.09 251.811 14.1184 251.631 14.142C251.196 14.1989 250.789 14.2912 250.41 14.419C250.036 14.5421 249.733 14.7292 249.501 14.9801C249.273 15.2263 249.16 15.5625 249.16 15.9886C249.16 16.571 249.375 17.0114 249.806 17.3097C250.242 17.6032 250.793 17.75 251.461 17.75ZM259.265 19V8.09091H260.884V9.73864H260.998C261.196 9.19886 261.556 8.76089 262.077 8.42472C262.598 8.08854 263.185 7.92045 263.838 7.92045C263.962 7.92045 264.115 7.92282 264.3 7.92756C264.485 7.93229 264.624 7.93939 264.719 7.94886V9.65341C264.662 9.6392 264.532 9.6179 264.328 9.58949C264.13 9.55634 263.919 9.53977 263.696 9.53977C263.166 9.53977 262.693 9.65104 262.276 9.87358C261.864 10.0914 261.537 10.3944 261.296 10.7827C261.059 11.1662 260.941 11.6042 260.941 12.0966V19H259.265Z" fill="black"/>
<defs>
<clipPath id="clip0_101_2053">
<rect width="24" height="24" fill="white"/>
</clipPath>
</defs>
</svg>
