<svg width="207" height="24" viewBox="0 0 207 24" fill="none" xmlns="http://www.w3.org/2000/svg">
<path d="M13.832 16.568C14.0385 16.6628 14.2712 16.6845 14.4917 16.6294C14.7122 16.5744 14.9073 16.4458 15.045 16.265L15.4 15.8C15.5863 15.5516 15.8279 15.35 16.1056 15.2111C16.3833 15.0723 16.6895 15 17 15H20C20.5304 15 21.0391 15.2107 21.4142 15.5858C21.7893 15.9609 22 16.4696 22 17V20C22 20.5304 21.7893 21.0391 21.4142 21.4142C21.0391 21.7893 20.5304 22 20 22C15.2261 22 10.6477 20.1036 7.27208 16.7279C3.89642 13.3523 2 8.7739 2 4C2 3.46957 2.21071 2.96086 2.58579 2.58579C2.96086 2.21071 3.46957 2 4 2H7C7.53043 2 8.03914 2.21071 8.41421 2.58579C8.78929 2.96086 9 3.46957 9 4V7C9 7.31049 8.92771 7.61672 8.78885 7.89443C8.65 8.17214 8.44839 8.41371 8.2 8.6L7.732 8.951C7.54842 9.09118 7.41902 9.29059 7.36579 9.51535C7.31256 9.74012 7.33878 9.97638 7.44 10.184C8.80668 12.9599 11.0544 15.2048 13.832 16.568Z" stroke="#8C8C8C" stroke-width="2" stroke-linecap="round" stroke-linejoin="round"/>
<path d="M49.7031 16.5568V6.95455H51.6136V16.5568H49.7031ZM45.8608 12.7074V10.804H55.4631V12.7074H45.8608ZM63.5561 4.25568C64.2048 4.26042 64.844 4.37879 65.4737 4.6108C66.1035 4.8428 66.6716 5.22159 67.1783 5.74716C67.6896 6.27273 68.0968 6.98295 68.3999 7.87784C68.7076 8.76799 68.8639 9.87595 68.8686 11.2017C68.8686 12.4754 68.7408 13.6094 68.4851 14.6037C68.2294 15.5933 67.8625 16.429 67.3842 17.1108C66.9107 17.7926 66.3355 18.3111 65.6584 18.6662C64.9813 19.0213 64.219 19.1989 63.3714 19.1989C62.505 19.1989 61.7356 19.0284 61.0632 18.6875C60.3909 18.3466 59.844 17.8755 59.4226 17.2741C59.0012 16.6681 58.7384 15.9721 58.6342 15.1861H60.8004C60.9425 15.8111 61.2313 16.3177 61.6669 16.706C62.1072 17.0895 62.6754 17.2812 63.3714 17.2812C64.4368 17.2812 65.2678 16.8172 65.8643 15.8892C66.4609 14.9564 66.7616 13.6544 66.7663 11.983H66.6527C66.4065 12.3902 66.0987 12.7405 65.7294 13.0341C65.3648 13.3277 64.9553 13.5549 64.5007 13.7159C64.0462 13.8769 63.5608 13.9574 63.0447 13.9574C62.2067 13.9574 61.4444 13.7514 60.7578 13.3395C60.0713 12.9276 59.5244 12.3617 59.1172 11.642C58.71 10.9223 58.5064 10.1009 58.5064 9.17756C58.5064 8.259 58.7147 7.42566 59.1314 6.67756C59.5528 5.92945 60.1399 5.33759 60.8928 4.90199C61.6503 4.46165 62.5381 4.24621 63.5561 4.25568ZM63.5632 6.10227C63.0092 6.10227 62.5097 6.23958 62.0646 6.5142C61.6243 6.78409 61.2763 7.15104 61.0206 7.61506C60.7649 8.07434 60.6371 8.5857 60.6371 9.14915C60.6371 9.71259 60.7602 10.224 61.0064 10.6832C61.2573 11.1378 61.5982 11.5 62.0291 11.7699C62.4647 12.035 62.9619 12.1676 63.5206 12.1676C63.9373 12.1676 64.3255 12.0871 64.6854 11.9261C65.0452 11.7652 65.3601 11.5426 65.63 11.2585C65.8999 10.9697 66.1106 10.643 66.2621 10.2784C66.4136 9.91383 66.4893 9.5303 66.4893 9.12784C66.4893 8.5928 66.3615 8.09564 66.1058 7.63636C65.8549 7.17708 65.5092 6.80776 65.0689 6.52841C64.6286 6.24432 64.1267 6.10227 63.5632 6.10227ZM76.271 4.25568C76.9196 4.26042 77.5588 4.37879 78.1886 4.6108C78.8183 4.8428 79.3865 5.22159 79.8931 5.74716C80.4045 6.27273 80.8117 6.98295 81.1147 7.87784C81.4225 8.76799 81.5787 9.87595 81.5835 11.2017C81.5835 12.4754 81.4556 13.6094 81.1999 14.6037C80.9442 15.5933 80.5773 16.429 80.0991 17.1108C79.6256 17.7926 79.0503 18.3111 78.3732 18.6662C77.6961 19.0213 76.9338 19.1989 76.0863 19.1989C75.2198 19.1989 74.4504 19.0284 73.7781 18.6875C73.1057 18.3466 72.5588 17.8755 72.1374 17.2741C71.716 16.6681 71.4532 15.9721 71.3491 15.1861H73.5153C73.6573 15.8111 73.9461 16.3177 74.3817 16.706C74.8221 17.0895 75.3903 17.2812 76.0863 17.2812C77.1516 17.2812 77.9826 16.8172 78.5792 15.8892C79.1758 14.9564 79.4764 13.6544 79.4812 11.983H79.3675C79.1213 12.3902 78.8136 12.7405 78.4442 13.0341C78.0797 13.3277 77.6701 13.5549 77.2156 13.7159C76.761 13.8769 76.2757 13.9574 75.7596 13.9574C74.9215 13.9574 74.1592 13.7514 73.4727 13.3395C72.7861 12.9276 72.2392 12.3617 71.832 11.642C71.4248 10.9223 71.2212 10.1009 71.2212 9.17756C71.2212 8.259 71.4296 7.42566 71.8462 6.67756C72.2676 5.92945 72.8548 5.33759 73.6076 4.90199C74.3652 4.46165 75.253 4.24621 76.271 4.25568ZM76.2781 6.10227C75.7241 6.10227 75.2246 6.23958 74.7795 6.5142C74.3391 6.78409 73.9911 7.15104 73.7354 7.61506C73.4798 8.07434 73.3519 8.5857 73.3519 9.14915C73.3519 9.71259 73.475 10.224 73.7212 10.6832C73.9722 11.1378 74.3131 11.5 74.744 11.7699C75.1796 12.035 75.6767 12.1676 76.2354 12.1676C76.6521 12.1676 77.0404 12.0871 77.4002 11.9261C77.7601 11.7652 78.0749 11.5426 78.3448 11.2585C78.6147 10.9697 78.8254 10.643 78.9769 10.2784C79.1284 9.91383 79.2042 9.5303 79.2042 9.12784C79.2042 8.5928 79.0763 8.09564 78.8207 7.63636C78.5697 7.17708 78.2241 6.80776 77.7837 6.52841C77.3434 6.24432 76.8415 6.10227 76.2781 6.10227ZM89.0639 19.1989C88.0459 19.1989 87.1463 19.0237 86.3651 18.6733C85.5885 18.3229 84.9801 17.84 84.5398 17.2244C84.0994 16.6089 83.8816 15.9081 83.8864 15.1222C83.8816 14.5066 84.0071 13.9408 84.2628 13.4247C84.5232 12.9039 84.8759 12.4706 85.321 12.125C85.7661 11.7746 86.2633 11.5521 86.8125 11.4574V11.3722C86.0881 11.197 85.508 10.8087 85.0724 10.2074C84.6368 9.60606 84.4214 8.91477 84.4261 8.13352C84.4214 7.39015 84.6179 6.72727 85.0156 6.14489C85.4181 5.55776 85.9697 5.09612 86.6705 4.75994C87.3712 4.42377 88.169 4.25568 89.0639 4.25568C89.9493 4.25568 90.7401 4.42614 91.4361 4.76705C92.1368 5.10322 92.6884 5.56487 93.0909 6.15199C93.4934 6.73437 93.697 7.39489 93.7017 8.13352C93.697 8.91477 93.4744 9.60606 93.0341 10.2074C92.5938 10.8087 92.0208 11.197 91.3153 11.3722V11.4574C91.8598 11.5521 92.3499 11.7746 92.7855 12.125C93.2259 12.4706 93.5762 12.9039 93.8366 13.4247C94.1018 13.9408 94.2367 14.5066 94.2415 15.1222C94.2367 15.9081 94.0142 16.6089 93.5739 17.2244C93.1335 17.84 92.5227 18.3229 91.7415 18.6733C90.965 19.0237 90.0724 19.1989 89.0639 19.1989ZM89.0639 17.402C89.6652 17.402 90.1861 17.3026 90.6264 17.1037C91.0668 16.9001 91.4077 16.6184 91.6491 16.2585C91.8906 15.8939 92.0137 15.4678 92.0185 14.9801C92.0137 14.4735 91.8812 14.026 91.6207 13.6378C91.3651 13.2495 91.017 12.9441 90.5767 12.7216C90.1364 12.4991 89.6321 12.3878 89.0639 12.3878C88.491 12.3878 87.982 12.4991 87.5369 12.7216C87.0919 12.9441 86.7415 13.2495 86.4858 13.6378C86.2301 14.026 86.1046 14.4735 86.1094 14.9801C86.1046 15.4678 86.2206 15.8939 86.4574 16.2585C86.6989 16.6184 87.0421 16.9001 87.4872 17.1037C87.9323 17.3026 88.4579 17.402 89.0639 17.402ZM89.0639 10.6335C89.5469 10.6335 89.9754 10.5365 90.3494 10.3423C90.7235 10.1482 91.017 9.87831 91.2301 9.53267C91.4479 9.18703 91.5592 8.7822 91.5639 8.31818C91.5592 7.86364 91.4503 7.46591 91.2372 7.125C91.0289 6.78409 90.7377 6.52131 90.3636 6.33665C89.9896 6.14725 89.5563 6.05256 89.0639 6.05256C88.562 6.05256 88.1217 6.14725 87.7429 6.33665C87.3688 6.52131 87.0777 6.78409 86.8693 7.125C86.661 7.46591 86.5592 7.86364 86.5639 8.31818C86.5592 8.7822 86.6634 9.18703 86.8764 9.53267C87.0895 9.87831 87.383 10.1482 87.7571 10.3423C88.1359 10.5365 88.5715 10.6335 89.0639 10.6335ZM101.623 4.25568C102.271 4.26042 102.91 4.37879 103.54 4.6108C104.17 4.8428 104.738 5.22159 105.245 5.74716C105.756 6.27273 106.163 6.98295 106.466 7.87784C106.774 8.76799 106.93 9.87595 106.935 11.2017C106.935 12.4754 106.807 13.6094 106.551 14.6037C106.296 15.5933 105.929 16.429 105.451 17.1108C104.977 17.7926 104.402 18.3111 103.725 18.6662C103.048 19.0213 102.285 19.1989 101.438 19.1989C100.571 19.1989 99.802 19.0284 99.1296 18.6875C98.4573 18.3466 97.9104 17.8755 97.489 17.2741C97.0676 16.6681 96.8048 15.9721 96.7006 15.1861H98.8668C99.0089 15.8111 99.2977 16.3177 99.7333 16.706C100.174 17.0895 100.742 17.2812 101.438 17.2812C102.503 17.2812 103.334 16.8172 103.931 15.8892C104.527 14.9564 104.828 13.6544 104.833 11.983H104.719C104.473 12.3902 104.165 12.7405 103.796 13.0341C103.431 13.3277 103.022 13.5549 102.567 13.7159C102.113 13.8769 101.627 13.9574 101.111 13.9574C100.273 13.9574 99.5108 13.7514 98.8242 13.3395C98.1377 12.9276 97.5908 12.3617 97.1836 11.642C96.7764 10.9223 96.5728 10.1009 96.5728 9.17756C96.5728 8.259 96.7811 7.42566 97.1978 6.67756C97.6192 5.92945 98.2063 5.33759 98.9592 4.90199C99.7167 4.46165 100.605 4.24621 101.623 4.25568ZM101.63 6.10227C101.076 6.10227 100.576 6.23958 100.131 6.5142C99.6907 6.78409 99.3427 7.15104 99.087 7.61506C98.8313 8.07434 98.7035 8.5857 98.7035 9.14915C98.7035 9.71259 98.8266 10.224 99.0728 10.6832C99.3237 11.1378 99.6647 11.5 100.096 11.7699C100.531 12.035 101.028 12.1676 101.587 12.1676C102.004 12.1676 102.392 12.0871 102.752 11.9261C103.112 11.7652 103.426 11.5426 103.696 11.2585C103.966 10.9697 104.177 10.643 104.328 10.2784C104.48 9.91383 104.556 9.5303 104.556 9.12784C104.556 8.5928 104.428 8.09564 104.172 7.63636C103.921 7.17708 103.576 6.80776 103.135 6.52841C102.695 6.24432 102.193 6.10227 101.63 6.10227ZM114.337 4.25568C114.986 4.26042 115.625 4.37879 116.255 4.6108C116.885 4.8428 117.453 5.22159 117.96 5.74716C118.471 6.27273 118.878 6.98295 119.181 7.87784C119.489 8.76799 119.645 9.87595 119.65 11.2017C119.65 12.4754 119.522 13.6094 119.266 14.6037C119.011 15.5933 118.644 16.429 118.165 17.1108C117.692 17.7926 117.117 18.3111 116.44 18.6662C115.763 19.0213 115 19.1989 114.153 19.1989C113.286 19.1989 112.517 19.0284 111.844 18.6875C111.172 18.3466 110.625 17.8755 110.204 17.2741C109.782 16.6681 109.52 15.9721 109.415 15.1861H111.582C111.724 15.8111 112.013 16.3177 112.448 16.706C112.888 17.0895 113.457 17.2812 114.153 17.2812C115.218 17.2812 116.049 16.8172 116.646 15.8892C117.242 14.9564 117.543 13.6544 117.548 11.983H117.434C117.188 12.3902 116.88 12.7405 116.511 13.0341C116.146 13.3277 115.737 13.5549 115.282 13.7159C114.827 13.8769 114.342 13.9574 113.826 13.9574C112.988 13.9574 112.226 13.7514 111.539 13.3395C110.853 12.9276 110.306 12.3617 109.898 11.642C109.491 10.9223 109.288 10.1009 109.288 9.17756C109.288 8.259 109.496 7.42566 109.913 6.67756C110.334 5.92945 110.921 5.33759 111.674 4.90199C112.432 4.46165 113.319 4.24621 114.337 4.25568ZM114.344 6.10227C113.79 6.10227 113.291 6.23958 112.846 6.5142C112.406 6.78409 112.058 7.15104 111.802 7.61506C111.546 8.07434 111.418 8.5857 111.418 9.14915C111.418 9.71259 111.541 10.224 111.788 10.6832C112.039 11.1378 112.379 11.5 112.81 11.7699C113.246 12.035 113.743 12.1676 114.302 12.1676C114.719 12.1676 115.107 12.0871 115.467 11.9261C115.826 11.7652 116.141 11.5426 116.411 11.2585C116.681 10.9697 116.892 10.643 117.043 10.2784C117.195 9.91383 117.271 9.5303 117.271 9.12784C117.271 8.5928 117.143 8.09564 116.887 7.63636C116.636 7.17708 116.29 6.80776 115.85 6.52841C115.41 6.24432 114.908 6.10227 114.344 6.10227ZM127.734 4.45455V19H125.532V6.65625H125.447L121.967 8.92898V6.8267L125.596 4.45455H127.734ZM131.363 16.1591V14.3835L137.649 4.45455H139.048V7.06818H138.16L133.664 14.1847V14.2983H142.279V16.1591H131.363ZM138.26 19V15.6193L138.274 14.8097V4.45455H140.355V19H138.26ZM144.755 19V17.4091L149.676 12.3097C150.202 11.7557 150.635 11.2704 150.976 10.8537C151.322 10.4323 151.58 10.0322 151.75 9.65341C151.921 9.27462 152.006 8.87216 152.006 8.44602C152.006 7.96307 151.892 7.5464 151.665 7.19602C151.438 6.84091 151.128 6.56866 150.735 6.37926C150.342 6.18513 149.899 6.08807 149.407 6.08807C148.886 6.08807 148.431 6.1946 148.043 6.40767C147.655 6.62074 147.356 6.9214 147.148 7.30966C146.94 7.69792 146.836 8.15246 146.836 8.6733H144.74C144.74 7.78788 144.944 7.01373 145.351 6.35085C145.758 5.68797 146.317 5.17424 147.027 4.80966C147.738 4.44034 148.545 4.25568 149.449 4.25568C150.363 4.25568 151.168 4.43797 151.864 4.80256C152.565 5.1624 153.112 5.65483 153.505 6.27983C153.898 6.90009 154.094 7.60085 154.094 8.3821C154.094 8.92188 153.992 9.44981 153.789 9.96591C153.59 10.482 153.242 11.0573 152.745 11.6918C152.248 12.3215 151.556 13.0862 150.671 13.9858L147.78 17.0114V17.1179H154.328V19H144.755ZM157.02 19V17.4091L161.942 12.3097C162.468 11.7557 162.901 11.2704 163.242 10.8537C163.587 10.4323 163.846 10.0322 164.016 9.65341C164.186 9.27462 164.272 8.87216 164.272 8.44602C164.272 7.96307 164.158 7.5464 163.931 7.19602C163.703 6.84091 163.393 6.56866 163 6.37926C162.607 6.18513 162.165 6.08807 161.672 6.08807C161.151 6.08807 160.697 6.1946 160.309 6.40767C159.92 6.62074 159.622 6.9214 159.414 7.30966C159.205 7.69792 159.101 8.15246 159.101 8.6733H157.006C157.006 7.78788 157.21 7.01373 157.617 6.35085C158.024 5.68797 158.583 5.17424 159.293 4.80966C160.003 4.44034 160.81 4.25568 161.715 4.25568C162.629 4.25568 163.434 4.43797 164.13 4.80256C164.83 5.1624 165.377 5.65483 165.77 6.27983C166.163 6.90009 166.36 7.60085 166.36 8.3821C166.36 8.92188 166.258 9.44981 166.054 9.96591C165.855 10.482 165.507 11.0573 165.01 11.6918C164.513 12.3215 163.822 13.0862 162.936 13.9858L160.046 17.0114V17.1179H166.594V19H157.02ZM174.35 19.1989C173.374 19.1989 172.503 19.0308 171.736 18.6946C170.974 18.3584 170.37 17.892 169.925 17.2955C169.485 16.6941 169.248 15.9981 169.215 15.2074H171.445C171.473 15.6383 171.618 16.0123 171.878 16.3295C172.143 16.642 172.489 16.8835 172.915 17.054C173.341 17.2244 173.815 17.3097 174.336 17.3097C174.908 17.3097 175.415 17.2102 175.855 17.0114C176.301 16.8125 176.649 16.5355 176.9 16.1804C177.15 15.8205 177.276 15.4062 177.276 14.9375C177.276 14.4498 177.15 14.0213 176.9 13.652C176.653 13.2779 176.291 12.9844 175.813 12.7713C175.339 12.5582 174.766 12.4517 174.094 12.4517H172.865V10.6619H174.094C174.634 10.6619 175.107 10.5649 175.515 10.3707C175.926 10.1766 176.248 9.90672 176.48 9.56108C176.712 9.2107 176.828 8.80114 176.828 8.33239C176.828 7.88258 176.727 7.49195 176.523 7.16051C176.324 6.82434 176.04 6.56155 175.671 6.37216C175.306 6.18276 174.875 6.08807 174.378 6.08807C173.905 6.08807 173.462 6.17566 173.05 6.35085C172.643 6.52131 172.311 6.76752 172.056 7.08949C171.8 7.40672 171.663 7.78788 171.644 8.23295H169.52C169.544 7.44697 169.776 6.75568 170.216 6.15909C170.661 5.5625 171.248 5.09612 171.978 4.75994C172.707 4.42377 173.516 4.25568 174.407 4.25568C175.339 4.25568 176.144 4.43797 176.821 4.80256C177.503 5.1624 178.029 5.64299 178.398 6.24432C178.772 6.84564 178.957 7.50379 178.952 8.21875C178.957 9.03314 178.73 9.72443 178.27 10.2926C177.816 10.8608 177.21 11.242 176.452 11.4361V11.5497C177.418 11.6965 178.166 12.08 178.696 12.7003C179.231 13.3205 179.497 14.09 179.492 15.0085C179.497 15.8087 179.274 16.526 178.824 17.1605C178.379 17.795 177.771 18.2945 176.999 18.6591C176.227 19.0189 175.344 19.1989 174.35 19.1989ZM187.24 19.2415C186.118 19.2367 185.159 18.9408 184.364 18.3537C183.569 17.7666 182.96 16.9119 182.539 15.7898C182.117 14.6676 181.907 13.3158 181.907 11.7344C181.907 10.1577 182.117 8.81061 182.539 7.69318C182.965 6.57576 183.576 5.72348 184.371 5.13636C185.171 4.54924 186.128 4.25568 187.24 4.25568C188.353 4.25568 189.307 4.55161 190.103 5.14347C190.898 5.73059 191.507 6.58286 191.928 7.70028C192.354 8.81297 192.567 10.1577 192.567 11.7344C192.567 13.3205 192.356 14.6747 191.935 15.7969C191.514 16.9143 190.905 17.7689 190.11 18.3608C189.314 18.9479 188.358 19.2415 187.24 19.2415ZM187.24 17.3452C188.225 17.3452 188.995 16.8646 189.549 15.9034C190.107 14.9422 190.387 13.5526 190.387 11.7344C190.387 10.527 190.259 9.50663 190.003 8.6733C189.752 7.83523 189.39 7.20076 188.917 6.76989C188.448 6.33428 187.889 6.11648 187.24 6.11648C186.26 6.11648 185.491 6.59943 184.932 7.56534C184.373 8.53125 184.092 9.92093 184.087 11.7344C184.087 12.9465 184.212 13.9716 184.463 14.8097C184.719 15.643 185.081 16.2751 185.55 16.706C186.019 17.1321 186.582 17.3452 187.24 17.3452ZM200.151 19.1989C199.175 19.1989 198.304 19.0308 197.537 18.6946C196.775 18.3584 196.171 17.892 195.726 17.2955C195.286 16.6941 195.049 15.9981 195.016 15.2074H197.246C197.274 15.6383 197.419 16.0123 197.679 16.3295C197.944 16.642 198.29 16.8835 198.716 17.054C199.142 17.2244 199.616 17.3097 200.136 17.3097C200.709 17.3097 201.216 17.2102 201.656 17.0114C202.101 16.8125 202.449 16.5355 202.7 16.1804C202.951 15.8205 203.077 15.4062 203.077 14.9375C203.077 14.4498 202.951 14.0213 202.7 13.652C202.454 13.2779 202.092 12.9844 201.614 12.7713C201.14 12.5582 200.567 12.4517 199.895 12.4517H198.666V10.6619H199.895C200.435 10.6619 200.908 10.5649 201.315 10.3707C201.727 10.1766 202.049 9.90672 202.281 9.56108C202.513 9.2107 202.629 8.80114 202.629 8.33239C202.629 7.88258 202.527 7.49195 202.324 7.16051C202.125 6.82434 201.841 6.56155 201.472 6.37216C201.107 6.18276 200.676 6.08807 200.179 6.08807C199.705 6.08807 199.263 6.17566 198.851 6.35085C198.444 6.52131 198.112 6.76752 197.857 7.08949C197.601 7.40672 197.464 7.78788 197.445 8.23295H195.321C195.345 7.44697 195.577 6.75568 196.017 6.15909C196.462 5.5625 197.049 5.09612 197.778 4.75994C198.508 4.42377 199.317 4.25568 200.207 4.25568C201.14 4.25568 201.945 4.43797 202.622 4.80256C203.304 5.1624 203.83 5.64299 204.199 6.24432C204.573 6.84564 204.758 7.50379 204.753 8.21875C204.758 9.03314 204.53 9.72443 204.071 10.2926C203.616 10.8608 203.01 11.242 202.253 11.4361V11.5497C203.219 11.6965 203.967 12.08 204.497 12.7003C205.032 13.3205 205.297 14.09 205.293 15.0085C205.297 15.8087 205.075 16.526 204.625 17.1605C204.18 17.795 203.571 18.2945 202.8 18.6591C202.028 19.0189 201.145 19.1989 200.151 19.1989Z" fill="black"/>
</svg>
